Coordinates
version=1
nRows=4
nColumns=124
inDegrees=yes

Units are S.I. units (second, meters, Newtons, ...)
If the header above contains a line with 'inDegrees', this indicates whether rotational values are in degrees (yes) or radians (no).

endheader 
time	pelvis_tilt	pelvis_list	pelvis_rotation	pelvis_tx	pelvis_ty	pelvis_tz	hip_flexion_l	hip_adduction_l	hip_rotation_l	hip_flexion_r	hip_adduction_r	hip_rotation_r	knee_angle_l	knee_angle_r	ankle_angle_l	ankle_angle_r	subtalar_angle_l	subtalar_angle_r	mtp_angle_l	mtp_angle_r	lumbar_extension	lumbar_bending	lumbar_rotation	arm_flex_l	arm_add_l	arm_rot_l	arm_flex_r	arm_add_r	arm_rot_r	elbow_flex_l	elbow_flex_r	glut_med1_l/activation	glut_med2_l/activation	glut_med3_l/activation	glut_min1_l/activation	glut_min2_l/activation	glut_min3_l/activation	semimem_l/activation	semiten_l/activation	bifemlh_l/activation	bifemsh_l/activation	sar_l/activation	add_long_l/activation	add_brev_l/activation	add_mag1_l/activation	add_mag2_l/activation	add_mag3_l/activation	tfl_l/activation	pect_l/activation	grac_l/activation	glut_max1_l/activation	glut_max2_l/activation	glut_max3_l/activation	iliacus_l/activation	psoas_l/activation	quad_fem_l/activation	gem_l/activation	peri_l/activation	rect_fem_l/activation	vas_med_l/activation	vas_int_l/activation	vas_lat_l/activation	med_gas_l/activation	lat_gas_l/activation	soleus_l/activation	tib_post_l/activation	flex_dig_l/activation	flex_hal_l/activation	tib_ant_l/activation	per_brev_l/activation	per_long_l/activation	per_tert_l/activation	ext_dig_l/activation	ext_hal_l/activation	ercspn_l/activation	intobl_l/activation	extobl_l/activation	glut_med1_r/activation	glut_med2_r/activation	glut_med3_r/activation	glut_min1_r/activation	glut_min2_r/activation	glut_min3_r/activation	semimem_r/activation	semiten_r/activation	bifemlh_r/activation	bifemsh_r/activation	sar_r/activation	add_long_r/activation	add_brev_r/activation	add_mag1_r/activation	add_mag2_r/activation	add_mag3_r/activation	tfl_r/activation	pect_r/activation	grac_r/activation	glut_max1_r/activation	glut_max2_r/activation	glut_max3_r/activation	iliacus_r/activation	psoas_r/activation	quad_fem_r/activation	gem_r/activation	peri_r/activation	rect_fem_r/activation	vas_med_r/activation	vas_int_r/activation	vas_lat_r/activation	med_gas_r/activation	lat_gas_r/activation	soleus_r/activation	tib_post_r/activation	flex_dig_r/activation	flex_hal_r/activation	tib_ant_r/activation	per_brev_r/activation	per_long_r/activation	per_tert_r/activation	ext_dig_r/activation	ext_hal_r/activation	ercspn_r/activation	intobl_r/activation	extobl_r/activation	
          0.58907800	          2.65790450	        -14.69390981	         -7.24845968	          0.40875367	          1.05753586	         -0.00301788	          0.12586477	        -16.07740824	         -9.18662100	         13.82051203	          9.14076800	         -6.85570656	        -17.09372143	        -51.57747943	         10.29422472	        -27.81617570	         -0.10721507	         19.67396849	         10.71419335	         -2.13755764	        -10.99020045	          8.86349313	          3.36057298	        -28.96706854	        -25.30836461	          0.43763121	        -24.62553526	        -36.31493243	         -2.75882399	        102.28682675	        110.39656818	          0.53330697	          0.38465125	          0.41336646	          0.64916927	          0.63251748	          0.58337756	          0.24898221	          0.21620715	          0.17442666	          0.57084117	          0.90910255	          0.46869578	          0.36827860	          0.47878485	          0.42395199	          0.18027774	          0.90719552	          0.65670283	          0.53450566	          0.54303730	          0.39972766	          0.13540852	          0.89289539	          0.94580977	          0.40159666	          0.54741634	          0.55241669	          0.52492820	          0.05000059	          0.05000052	          0.19589884	          0.69198952	          0.65096483	          0.72268696	          0.74207751	          0.65587987	          0.65490515	          0.64086014	          0.08949876	          0.12241658	          0.38636866	          0.53230832	          0.68337948	          0.07589045	          0.63058488	          0.08183977	          0.98202643	          0.77324574	          0.54612767	          0.82312834	          0.76362164	          0.60157933	          0.47931997	          0.27503456	          0.32798900	          0.34895604	          0.61614383	          0.17528563	          0.24792917	          0.55688223	          0.55463892	          0.50700039	          0.85815683	          0.55454472	          0.31308997	          0.54637406	          0.51553775	          0.43314052	          0.69620968	          0.64492830	          0.13499904	          0.31879137	          0.50806712	          0.81212336	          0.82584861	          0.84492529	          0.83426352	          0.54031028	          0.60314533	          0.41914336	          0.70298101	          0.54875240	          0.56291322	          0.73573454	          0.54134810	          0.47097213	          0.54460023	          0.19525960	          0.56904722	          0.22591278	          0.19048560	          0.28711776	
          0.59693237	          2.91443964	        -14.39106770	         -7.40618665	          0.41209783	          1.05706622	         -0.00400083	          1.91131405	        -15.94821365	         -8.92291478	         13.58221807	          8.66171123	         -6.46617579	        -21.15525313	        -51.22705929	         10.79843311	        -29.85638929	         -0.07637495	         19.85241660	         10.89686244	         -1.81391028	        -11.28590964	          9.09232105	          3.19409453	        -28.58689215	        -25.03585973	          0.56169715	        -23.82955039	        -36.78391021	         -2.69262758	        101.30996510	        111.35585607	          0.53730273	          0.34013569	          0.37795288	          0.64989798	          0.62270338	          0.57642964	          0.22016569	          0.19118307	          0.15424065	          0.50477040	          0.87924763	          0.50292229	          0.43233244	          0.49174910	          0.43837826	          0.19193344	          0.90582302	          0.66810537	          0.51195440	          0.53878076	          0.38212358	          0.11993731	          0.86147844	          0.90910155	          0.35511560	          0.51613418	          0.54706795	          0.68819614	          0.05000082	          0.05000078	          0.21843808	          0.61189548	          0.57562385	          0.63903970	          0.65622638	          0.62082601	          0.57961979	          0.76418743	          0.07916779	          0.10824731	          0.59721338	          0.69302018	          0.79215018	          0.10376195	          0.68378566	          0.14886320	          0.98819718	          0.81409276	          0.56730083	          0.82130693	          0.76964748	          0.60635058	          0.46195553	          0.24320094	          0.29671025	          0.30856513	          0.60580407	          0.15499806	          0.21923601	          0.55303395	          0.55229703	          0.50674820	          0.85760065	          0.53940535	          0.27685375	          0.55281129	          0.52620273	          0.43575977	          0.64833345	          0.60936286	          0.11937483	          0.31403993	          0.51746282	          0.87665086	          0.88569684	          0.89821764	          0.89122016	          0.56164530	          0.61072904	          0.47492602	          0.69902463	          0.54947767	          0.56794733	          0.65057997	          0.61317694	          0.48509001	          0.48157408	          0.17265981	          0.50318615	          0.19976499	          0.16844011	          0.25388618	
          0.60478675	          3.15345952	        -14.05059210	         -7.55270311	          0.41537435	          1.05625870	         -0.00496014	          3.82415835	        -15.79095310	         -8.57855861	         13.27440813	          8.14945311	         -6.03132548	        -25.32103232	        -50.91103220	         11.10962750	        -31.40706377	         -0.05138740	         20.27014446	         10.86577521	         -1.24627878	        -11.57765297	          9.25222411	          3.05985666	        -28.15567952	        -24.78629533	          0.68639372	        -22.96552490	        -37.18045135	         -2.58927478	        100.20754739	        112.23125255	          0.54664146	          0.30077753	          0.35461902	          0.65194998	          0.61787196	          0.57127305	          0.19468400	          0.16905480	          0.13639042	          0.44634696	          0.85346502	          0.51721436	          0.47321227	          0.50099818	          0.44832016	          0.20254188	          0.90348808	          0.67458572	          0.47974396	          0.53316722	          0.36436459	          0.11644450	          0.83087568	          0.87506976	          0.31401557	          0.49651761	          0.54196615	          0.79535376	          0.05000028	          0.05000025	          0.25220381	          0.54107217	          0.50900422	          0.56507341	          0.58028629	          0.58630454	          0.51258819	          0.84519307	          0.11347742	          0.09571917	          0.73562896	          0.79851464	          0.86355016	          0.12722660	          0.72426694	          0.18010080	          0.99224774	          0.83784388	          0.58143860	          0.81308726	          0.77076980	          0.60910950	          0.44994566	          0.21505198	          0.28187743	          0.27284959	          0.60185886	          0.13705880	          0.19386404	          0.55054307	          0.55079047	          0.50579443	          0.85685518	          0.52808270	          0.24481190	          0.55787622	          0.53500739	          0.43977712	          0.61214711	          0.58795259	          0.10555907	          0.28934355	          0.51899438	          0.91903090	          0.92497724	          0.93319520	          0.92860230	          0.57221672	          0.61333381	          0.53432013	          0.68813179	          0.54882170	          0.56843190	          0.57529060	          0.63157086	          0.48259866	          0.42585262	          0.15267656	          0.44495333	          0.17664444	          0.14894568	          0.22450053	
          0.61264112	          3.37484798	        -13.69400929	         -7.68298763	          0.41860557	          1.05515943	         -0.00587551	          5.79886830	        -15.61299945	         -8.15241353	         12.93750669	          7.63232329	         -5.57365497	        -29.45716268	        -50.70704701	         11.40041683	        -32.44976912	          0.00331901	         20.86689279	         10.40348837	         -0.38468123	        -11.86601393	          9.35998018	          2.95207934	        -27.68177710	        -24.55241466	          0.80577238	        -22.03296687	        -37.49869235	         -2.44455036	         98.98433133	        113.01206409	          0.54937089	          0.27361473	          0.34341031	          0.65229873	          0.61629708	          0.56773919	          0.17215159	          0.14948765	          0.12060605	          0.39468621	          0.84223232	          0.51472880	          0.49024351	          0.50500009	          0.45265584	          0.20926941	          0.90124755	          0.67690248	          0.44540088	          0.52699856	          0.34861655	          0.11982239	          0.81943695	          0.85666953	          0.27767497	          0.48564147	          0.53840981	          0.86568447	          0.08114846	          0.07414604	          0.28823197	          0.47844769	          0.45009731	          0.49966781	          0.51313329	          0.56368352	          0.45409228	          0.88051755	          0.22655069	          0.08464274	          0.82648451	          0.86775545	          0.89867746	          0.15120138	          0.72096717	          0.19456803	          0.99490901	          0.84244028	          0.58510829	          0.80746139	          0.77059431	          0.60997577	          0.44304350	          0.19016156	          0.27522472	          0.24126830	          0.60481586	          0.12119607	          0.17142914	          0.54856793	          0.54956713	          0.50430057	          0.85535855	          0.52361073	          0.21647918	          0.55979867	          0.53765607	          0.43908453	          0.59861782	          0.58317931	          0.09334247	          0.29644759	          0.51303684	          0.94685060	          0.95075855	          0.95615241	          0.95313737	          0.57557915	          0.61294822	          0.56568136	          0.67591226	          0.54776541	          0.56706563	          0.50874726	          0.62469596	          0.47635249	          0.37675015	          0.13500739	          0.39347854	          0.15620035	          0.13170779	          0.19851702	
